<?xml version="1.0" encoding="UTF-8"?>
<svg width="139px" height="34px" viewBox="0 0 139 34" version="1.1" xmlns="http://www.w3.org/2000/svg" xmlns:xlink="http://www.w3.org/1999/xlink">
    <!-- Generator: sketchtool 55.2 (78181) - https://sketchapp.com -->
    <title>20655A82-2A9A-4E2A-83E9-01C09F7FF322</title>
    <desc>Created with sketchtool.</desc>
    <g id="📄-Pages" stroke="none" stroke-width="1" fill="none" fill-rule="evenodd">
        <g id="Desktop" transform="translate(-1358.000000, -41.000000)" fill="#1B1C30" fill-rule="nonzero">
            <path d="M1374.744,74.644 C1365.038,74.644 1358,67.376 1358,57.9 C1358,48.424 1365.038,41.156 1374.744,41.156 C1380.586,41.156 1385.738,44.054 1388.544,48.608 L1382.196,52.288 C1380.77,49.804 1378.01,48.332 1374.744,48.332 C1369.04,48.332 1365.36,52.15 1365.36,57.9 C1365.36,63.65 1369.04,67.468 1374.744,67.468 C1378.01,67.468 1380.816,65.996 1382.196,63.512 L1388.544,67.192 C1385.784,71.746 1380.632,74.644 1374.744,74.644 Z M1404.184,74.644 C1397.422,74.644 1391.994,69.354 1391.994,62.5 C1391.994,55.646 1397.422,50.356 1404.184,50.356 C1410.946,50.356 1416.374,55.646 1416.374,62.5 C1416.374,69.354 1410.946,74.644 1404.184,74.644 Z M1404.184,67.928 C1407.174,67.928 1409.474,65.766 1409.474,62.5 C1409.474,59.234 1407.174,57.072 1404.184,57.072 C1401.194,57.072 1398.894,59.234 1398.894,62.5 C1398.894,65.766 1401.194,67.928 1404.184,67.928 Z M1443.284,41.8 L1443.284,48.884 L1435.004,48.884 L1435.004,74 L1427.644,74 L1427.644,48.884 L1419.364,48.884 L1419.364,41.8 L1443.284,41.8 Z M1449.448,65.26 C1450.322,67.652 1452.438,68.48 1454.968,68.48 C1456.854,68.48 1458.464,67.744 1459.384,66.732 L1464.904,69.906 C1462.65,73.034 1459.246,74.644 1454.876,74.644 C1447.01,74.644 1442.134,69.354 1442.134,62.5 C1442.134,55.646 1447.102,50.356 1454.37,50.356 C1461.086,50.356 1466.054,55.554 1466.054,62.5 C1466.054,63.466 1465.962,64.386 1465.778,65.26 L1449.448,65.26 Z M1449.31,60.108 L1459.2,60.108 C1458.464,57.44 1456.394,56.474 1454.324,56.474 C1451.702,56.474 1449.954,57.762 1449.31,60.108 Z M1496.644,74 L1488.272,74 L1482.844,64.708 L1477.416,74 L1469.044,74 L1478.658,57.486 L1469.504,41.8 L1477.876,41.8 L1482.844,50.31 L1487.812,41.8 L1496.184,41.8 L1487.03,57.486 L1496.644,74 Z" id="CoTeX"></path>
        </g>
    </g>
</svg>